<svg width="75" height="239" viewBox="0 0 75 239" fill="none" xmlns="http://www.w3.org/2000/svg">
<path d="M42.4738 233.5C42.4738 236.261 40.2352 238.5 37.4738 238.5C34.7123 238.5 32.4738 236.261 32.4738 233.5L42.4738 233.5ZM33.9382 1.46446C35.8908 -0.488159 39.0567 -0.488159 41.0093 1.46446L72.8291 33.2843C74.7817 35.2369 74.7817 38.4027 72.8291 40.3553C70.8765 42.308 67.7106 42.308 65.758 40.3553L37.4737 12.0711L9.18947 40.3553C7.23685 42.308 4.07103 42.308 2.11841 40.3553C0.165788 38.4027 0.165784 35.2369 2.11841 33.2843L33.9382 1.46446ZM37.4738 233.5L32.4738 233.5L32.4737 5L37.4737 5L42.4737 5L42.4738 233.5L37.4738 233.5Z" fill="#C1121F"/>
</svg>