<?xml version="1.0" encoding="UTF-8" standalone="no"?><!DOCTYPE svg PUBLIC "-//W3C//DTD SVG 1.1//EN" "http://www.w3.org/Graphics/SVG/1.1/DTD/svg11.dtd"><svg width="100%" height="100%" viewBox="0 0 300 300" version="1.1" xmlns="http://www.w3.org/2000/svg" xmlns:xlink="http://www.w3.org/1999/xlink" xml:space="preserve" xmlns:serif="http://www.serif.com/" style="fill-rule:evenodd;clip-rule:evenodd;stroke-linejoin:round;stroke-miterlimit:2;"><rect id="Artboard1" x="0" y="0" width="300" height="300" style="fill:none;"/><g id="Artboard11" serif:id="Artboard1"><g><circle cx="150" cy="150" r="150" style="fill:#9197ae;"/><path d="M117.506,103.576l-0.001,-0l32.439,130.691l23.994,-59.399l-29.682,-114.656l-26.75,43.364Z" style="fill:#273043;"/><path d="M222.564,65.787l-0.046,-0.054l-47.912,70.241l4.925,5.501l20.003,-17.003l-0.727,1.853l-48.481,107.942l3.953,5.521l44.957,0l68.307,-174.055l-4.952,-5.521l-40.005,5.523l-0.001,-0.002l-0.021,0.054Z" style="fill:#dd0426;"/><path d="M105.347,65.787l-0.046,-0.054l-47.912,70.241l4.924,5.501l20.004,-17.003l-0.727,1.853l-48.481,107.942l3.953,5.521l44.957,0l68.307,-174.055l-4.953,-5.521l-40.005,5.523l-0,-0.002l-0.021,0.054Z" style="fill:#dd0426;"/><path d="M100.742,60.266l-0.046,-0.054l-62.333,52.981l19.346,22.76l20.003,-17.002l-0.727,1.852l-44.528,113.464l44.957,-0l68.307,-174.055l-44.957,0.001l-0.001,-0.001l-0.021,0.054Z" style="fill:#eff6ee;"/><path d="M217.611,60.266l-0.046,-0.054l-62.333,52.981l19.346,22.76l20.004,-17.002l-0.727,1.852l-44.529,113.464l44.957,-0l68.308,-174.055l-44.958,0.001l-0.001,-0.001l-0.021,0.054Z" style="fill:#eff6ee;"/></g></g></svg>