<?xml version="1.0" encoding="UTF-8" standalone="no"?><!DOCTYPE svg PUBLIC "-//W3C//DTD SVG 1.1//EN" "http://www.w3.org/Graphics/SVG/1.1/DTD/svg11.dtd"><svg width="100%" height="100%" viewBox="0 0 396 300" version="1.1" xmlns="http://www.w3.org/2000/svg" xmlns:xlink="http://www.w3.org/1999/xlink" xml:space="preserve" xmlns:serif="http://www.serif.com/" style="fill-rule:evenodd;clip-rule:evenodd;stroke-linecap:round;stroke-linejoin:round;stroke-miterlimit:1.5;"><rect id="Artboard2" x="0" y="0" width="395.669" height="300" style="fill:none;"/><g><path d="M268.612,74.441c-12.535,-31.931 -47.648,-40.997 -70.053,-31.356c-23.635,10.171 -34.084,41.435 -24.551,78.651c5.927,26.183 31.35,58.355 53.821,81.317c1.229,1.256 3.02,1.788 4.736,1.407c31.376,-6.973 70.261,-20.056 89.52,-38.777c28.275,-25.949 36.586,-57.843 22.337,-79.266c-13.506,-20.31 -47.874,-31.885 -75.81,-11.976l0,-0Z" style="fill:#dd0426;stroke:#760214;stroke-width:10.17px;"/><path d="M222.223,61.348c7.252,9.753 -6.688,14.006 -11.134,17.861c-4.446,3.855 -12.615,12.824 -18.271,5.315c-5.656,-7.509 1.274,-16.784 5.721,-20.639c4.446,-3.855 16.431,-12.289 23.684,-2.537Z" style="fill:#fef8ec;stroke:#fef8ec;stroke-width:10.17px;"/><path d="M269.034,173.473c2.882,5.378 -4.354,6.462 -6.846,8.048c-2.492,1.587 -7.21,5.438 -9.465,1.292c-2.255,-4.146 1.871,-8.24 4.363,-9.827c2.492,-1.586 9.065,-4.89 11.948,0.487Z" style="fill:#fef8ec;stroke:#fef8ec;stroke-width:5.1px;"/></g><g><path d="M207.484,260.573l-153.451,-31.465c-1.56,-48.817 25.329,-86.322 86.553,-110.175l66.898,141.64Z" style="fill:#fef8ec;stroke:#760214;stroke-width:16.03px;"/><path d="M207.484,260.573l-153.451,-31.465c-1.56,-48.817 25.329,-86.322 86.553,-110.175l66.898,141.64Z" style="fill:#fef8ec;"/><clipPath id="_clip1"><path d="M207.484,260.573l-153.451,-31.465c-1.56,-48.817 25.329,-86.322 86.553,-110.175l66.898,141.64Z"/></clipPath><g clip-path="url(#_clip1)"><g><path d="M84.405,205.322c14.074,-4.292 28.984,3.65 33.276,17.724c4.292,14.075 -3.65,28.985 -17.725,33.277c-14.074,4.292 -28.984,-3.651 -33.276,-17.725c-4.292,-14.074 3.651,-28.984 17.725,-33.276Z" style="fill:#dd0426;"/><path d="M128.198,151.02c11.222,-3.422 23.11,2.911 26.532,14.132c3.422,11.222 -2.911,23.11 -14.132,26.532c-11.222,3.422 -23.11,-2.911 -26.532,-14.132c-3.422,-11.222 2.911,-23.11 14.132,-26.532Z" style="fill:#dd0426;"/><path d="M177.519,194.773c14.075,-4.292 28.985,3.65 33.277,17.725c4.291,14.074 -3.651,28.984 -17.725,33.276c-14.074,4.292 -28.985,-3.651 -33.276,-17.725c-4.292,-14.074 3.65,-28.984 17.724,-33.276Z" style="fill:#dd0426;"/></g></g><path d="M44.478,221.601c-1.56,-48.817 25.328,-86.322 86.552,-110.175" style="fill:none;stroke:#760214;stroke-width:39.5px;"/></g></svg>